<svg width="128" height="52" viewBox="0 0 128 52" fill="none" xmlns="http://www.w3.org/2000/svg">
<rect width="128" height="52" rx="8" fill="white" fill-opacity="0.12"/>
<g opacity="0.7">
<mask id="mask0_88_320" style="mask-type:luminance" maskUnits="userSpaceOnUse" x="16" y="8" width="96" height="36">
<path d="M112 8H16V44H112V8Z" fill="white"/>
</mask>
<g mask="url(#mask0_88_320)">
<path d="M65.563 19.9241L70.1302 19.626C70.2344 20.3801 70.4255 20.9412 70.7381 21.3445C71.2417 21.9758 71.9363 22.2914 72.8567 22.2914C73.534 22.2914 74.0724 22.1336 74.437 21.8004C74.7844 21.5374 74.9928 21.1166 74.9928 20.6782C74.9928 20.2573 74.8018 19.854 74.4718 19.591C74.1245 19.2754 73.3083 18.9597 72.0231 18.6792C69.9219 18.2057 68.411 17.5744 67.5253 16.7678C66.6396 16.0138 66.1361 14.909 66.1708 13.7342C66.1708 12.9276 66.4139 12.1209 66.8654 11.4546C67.3864 10.7006 68.0984 10.1044 68.9494 9.77121C69.8698 9.36789 71.1548 9.15747 72.7699 9.15747C74.7497 9.15747 76.2605 9.52571 77.3025 10.2797C78.3444 11.0162 78.9697 12.2086 79.1607 13.8394L74.6454 14.1024C74.5239 13.401 74.2808 12.8925 73.8814 12.5593C73.4819 12.2261 72.961 12.0683 72.2837 12.0683C71.7279 12.0683 71.3112 12.1911 71.0333 12.419C70.7728 12.6295 70.5992 12.9451 70.6165 13.2958C70.6165 13.5588 70.7554 13.8043 70.9638 13.9621C71.1896 14.1726 71.7279 14.3655 72.5789 14.5408C74.6801 14.9967 76.1736 15.4526 77.094 15.9261C78.0144 16.3995 78.6744 16.9782 79.0738 17.6621C79.4906 18.3635 79.699 19.1701 79.6816 19.9943C79.6816 20.9762 79.4038 21.9583 78.848 22.7824C78.275 23.6417 77.4761 24.308 76.5384 24.7113C75.5485 25.1497 74.2981 25.3776 72.8046 25.3776C70.165 25.3776 68.3415 24.8691 67.3169 23.8345C66.2924 22.8 65.6845 21.5023 65.563 19.9241ZM17.0941 25.1146V9.43803H25.0999C26.576 9.43803 27.7222 9.56078 28.5036 9.82381C29.2677 10.0693 29.945 10.5778 30.3965 11.2617C30.9001 12.0157 31.1433 12.8925 31.1259 13.8043C31.178 15.3474 30.3965 16.8204 29.0593 17.592C28.5384 17.8901 27.9653 18.1005 27.3748 18.2057C27.809 18.3284 28.2431 18.5388 28.6252 18.7843C28.9204 19.0299 29.1635 19.3104 29.3893 19.6085C29.6498 19.9066 29.8755 20.2398 30.0665 20.5905L32.3936 25.1321H26.9407L24.3705 20.3099C24.0405 19.6962 23.7627 19.2929 23.5022 19.1C23.1548 18.8545 22.7381 18.7318 22.3213 18.7318H21.9045V25.097H17.0941V25.1146ZM21.9045 15.7858H23.9363C24.3705 15.7507 24.7872 15.6806 25.2041 15.5754C25.5166 15.5228 25.7945 15.3474 25.9856 15.0844C26.4544 14.4531 26.3849 13.5588 25.8118 13.0152C25.4993 12.7522 24.8914 12.6119 24.0231 12.6119H21.9045V15.7858ZM16 38.5466L20.5673 38.2486C20.6715 39.0026 20.8625 39.5637 21.1751 39.967C21.6614 40.5983 22.3734 40.9315 23.2938 40.9315C23.971 40.9315 24.5094 40.7736 24.8741 40.4405C25.2214 40.1599 25.4298 39.7566 25.4298 39.3182C25.4298 38.8973 25.2388 38.4941 24.9088 38.231C24.5615 37.9154 23.7453 37.5998 22.4428 37.3192C20.3415 36.8458 18.8307 36.2145 17.945 35.4078C17.0593 34.6538 16.5557 33.5491 16.5904 32.3742C16.5904 31.5676 16.8336 30.761 17.2851 30.0946C17.8061 29.3406 18.5181 28.7444 19.369 28.4112C20.2894 28.0079 21.5745 27.7975 23.1896 27.7975C25.1693 27.7975 26.6801 28.1657 27.7222 28.9198C28.7641 29.6738 29.372 30.8486 29.563 32.4795L25.0478 32.7425C24.9262 32.041 24.6831 31.5325 24.2837 31.1993C23.9016 30.8662 23.3633 30.7084 22.686 30.7259C22.1302 30.7259 21.7135 30.8486 21.4356 31.0942C21.1577 31.3046 21.0014 31.6202 21.0188 31.9709C21.0188 32.2339 21.1577 32.4795 21.3661 32.6373C21.5919 32.8477 22.1302 33.0406 22.9812 33.2159C25.0825 33.6718 26.576 34.1278 27.4964 34.6012C28.4168 35.0746 29.0767 35.6533 29.4761 36.3372C29.8929 37.0386 30.1013 37.8452 30.1013 38.6519C30.1013 39.6339 29.8061 40.5983 29.2677 41.4224C28.6947 42.2817 27.8958 42.948 26.958 43.3513C25.9682 43.7897 24.7178 44.0177 23.2243 44.0177C20.5847 44.0177 18.7612 43.5091 17.7366 42.4745C16.712 41.4224 16.1389 40.1249 16 38.5466Z" fill="white"/>
<path d="M39.0964 37.319L43.299 38.5991C43.0732 39.6688 42.6043 40.6858 41.9618 41.5801C41.3713 42.3692 40.5899 42.9829 39.7042 43.3862C38.8011 43.7896 37.655 44 36.2657 44C34.5812 44 33.1919 43.7545 32.1326 43.2635C31.0558 42.7725 30.1354 41.8957 29.3539 40.6507C28.5725 39.4057 28.1904 37.81 28.1904 35.8636C28.1904 33.2684 28.8677 31.2693 30.2396 29.884C31.6116 28.4987 33.5392 27.7974 36.0399 27.7974C38.0023 27.7974 39.5305 28.2006 40.6593 28.9897C41.7708 29.7964 42.6043 31.0238 43.1601 32.6722L38.9227 33.6191C38.8185 33.2508 38.6622 32.8826 38.4538 32.5669C38.1933 32.1987 37.8633 31.9182 37.464 31.7077C37.0645 31.4973 36.613 31.4096 36.1615 31.4096C35.0674 31.4096 34.2338 31.848 33.6607 32.7423C33.2266 33.3911 33.0009 34.4257 33.0009 35.8285C33.0009 37.5645 33.2613 38.7569 33.7824 39.4057C34.3033 40.0545 35.0327 40.3702 35.9878 40.3702C36.9082 40.3702 37.6029 40.1071 38.0718 39.5986C38.5406 39.055 38.888 38.301 39.0964 37.319ZM48.9082 28.0604H53.7013V33.5489H58.9459V28.0604H63.7737V43.737H58.9459V37.3892H53.7013V43.737H48.9082V28.0604Z" fill="white"/>
<path d="M63.1143 35.8989C63.1143 33.3387 63.8262 31.3397 65.2329 29.9193C66.6396 28.499 68.6193 27.78 71.1374 27.78C73.7249 27.78 75.7047 28.4815 77.1113 29.8843C78.518 31.2871 79.2126 33.251 79.2126 35.7761C79.2126 37.6173 78.9 39.1078 78.2922 40.2827C77.7018 41.4401 76.7814 42.3869 75.6526 43.0182C74.4891 43.667 73.0476 44.0002 71.3284 44.0002C69.5744 44.0002 68.1331 43.7196 66.9869 43.1584C65.806 42.5623 64.8335 41.6329 64.1909 40.4931C63.4789 39.2657 63.1143 37.7401 63.1143 35.8989ZM67.9073 35.9164C67.9073 37.4946 68.2025 38.6344 68.7756 39.3358C69.3487 40.0197 70.1475 40.3704 71.1548 40.3704C72.1793 40.3704 72.9782 40.0372 73.5513 39.3533C74.1243 38.6695 74.4022 37.4595 74.4022 35.706C74.4022 34.233 74.107 33.1458 73.5166 32.4795C72.9261 31.7956 72.1272 31.4624 71.12 31.4624C70.2344 31.4274 69.3834 31.8132 68.7929 32.497C68.2025 33.1809 67.9073 34.3207 67.9073 35.9164ZM84.1272 35.8989C84.1272 33.3387 84.8393 31.3397 86.246 29.9193C87.6526 28.499 89.6326 27.78 92.1504 27.78C94.7382 27.78 96.7352 28.4815 98.1243 29.8843C99.5135 31.2871 100.226 33.251 100.226 35.7761C100.226 37.6173 99.913 39.1078 99.3053 40.2827C98.7152 41.4401 97.7947 42.3869 96.6653 43.0182C95.502 43.667 94.0606 44.0002 92.3417 44.0002C90.5876 44.0002 89.1462 43.7196 87.9999 43.1584C86.8189 42.5623 85.8465 41.6329 85.2039 40.4931C84.492 39.2657 84.1272 37.7401 84.1272 35.8989ZM88.9203 35.9164C88.9203 37.4946 89.2154 38.6344 89.7886 39.3358C90.3617 40.0197 91.1608 40.3704 92.1681 40.3704C93.1923 40.3704 93.9914 40.0372 94.5646 39.3533C95.1377 38.6695 95.4151 37.4595 95.4151 35.706C95.4151 34.233 95.1201 33.1458 94.5293 32.4795C93.9392 31.7956 93.1401 31.4624 92.1328 31.4624C91.2476 31.4274 90.3794 31.8132 89.8062 32.497C89.2154 33.1809 88.9203 34.3207 88.9203 35.9164Z" fill="white"/>
<path d="M99.7227 28.0608H104.516V39.8796H112V43.7374H99.7051V28.0608H99.7227Z" fill="white"/>
<path d="M94.4394 27.156C99.2648 23.4841 100.753 17.2596 97.7627 13.2533C94.7726 9.24694 88.4373 8.9758 83.6115 12.6477C78.7859 16.3196 77.2978 22.544 80.2878 26.5504C83.2778 30.5568 89.6133 30.8279 94.4394 27.156Z" fill="white"/>
<mask id="mask1_88_320" style="mask-type:luminance" maskUnits="userSpaceOnUse" x="78" y="10" width="22" height="20">
<path d="M94.4394 27.1557C99.2648 23.4838 100.753 17.2594 97.7627 13.253C94.7726 9.24669 88.4373 8.97556 83.6115 12.6475C78.7859 16.3193 77.2978 22.5438 80.2878 26.5502C83.2778 30.5565 89.6133 30.8276 94.4394 27.1557Z" fill="white"/>
</mask>
<g mask="url(#mask1_88_320)">
<path d="M67.9824 17.9145L92.9188 -1.0603L110.174 22.0606L85.2378 41.0353L67.9824 17.9145Z" fill="white"/>
<mask id="mask2_88_320" style="mask-type:luminance" maskUnits="userSpaceOnUse" x="67" y="-2" width="44" height="44">
<path d="M67.9824 17.9145L92.9188 -1.0603L110.174 22.0606L85.2378 41.0353L67.9824 17.9145Z" fill="white"/>
</mask>
<g mask="url(#mask2_88_320)">
<path d="M94.4404 27.1557C99.2658 23.4838 100.754 17.2594 97.7637 13.253C94.7736 9.24669 88.4383 8.97556 83.6124 12.6475C78.7869 16.3193 77.2988 22.5438 80.2888 26.5502C83.2788 30.5565 89.6143 30.8276 94.4404 27.1557Z" fill="white"/>
<mask id="mask3_88_320" style="mask-type:luminance" maskUnits="userSpaceOnUse" x="78" y="10" width="22" height="20">
<path d="M94.4404 27.1557C99.2658 23.4838 100.754 17.2594 97.7637 13.253C94.7736 9.24669 88.4383 8.97556 83.6124 12.6475C78.7869 16.3193 77.2988 22.5438 80.2888 26.5502C83.2788 30.5565 89.6143 30.8276 94.4404 27.1557Z" fill="white"/>
</mask>
<g mask="url(#mask3_88_320)">
<path d="M74.9258 19.4589L92.387 6.17261L103.225 20.6951L85.7637 33.9813L74.9258 19.4589Z" fill="white"/>
<mask id="mask4_88_320" style="mask-type:luminance" maskUnits="userSpaceOnUse" x="74" y="6" width="30" height="28">
<path d="M74.9258 19.4591L92.387 6.17285L103.225 20.6953L85.7637 33.9816L74.9258 19.4591Z" fill="white"/>
</mask>
<g mask="url(#mask4_88_320)">
<path d="M94.44 27.1565C99.2655 23.4846 100.753 17.2602 97.764 13.2538C94.7739 9.24742 88.4379 8.97629 83.6124 12.6482C78.7869 16.3201 77.2988 22.5445 80.2888 26.5509C83.2788 30.5572 89.6146 30.8283 94.44 27.1565Z" fill="white" stroke="white" stroke-width="4" stroke-miterlimit="10"/>
</g>
<mask id="mask5_88_320" style="mask-type:luminance" maskUnits="userSpaceOnUse" x="77" y="6" width="24" height="28">
<path d="M77.416 28.2011L83.465 6.95898L100.754 11.9508L94.7043 33.1929L77.416 28.2011Z" fill="white"/>
</mask>
<g mask="url(#mask5_88_320)">
<path d="M74.9277 19.4779L92.4067 6.1731L103.227 20.6771L85.7477 33.9818L74.9277 19.4779Z" stroke="white" stroke-width="4" stroke-miterlimit="10"/>
</g>
<path d="M94.4414 27.1562C99.2668 23.4843 100.755 17.2599 97.7647 13.2535C94.7745 9.24718 88.4393 8.97605 83.6134 12.6479C78.7879 16.3198 77.2998 22.5443 80.2898 26.5507C83.2797 30.557 89.6153 30.8281 94.4414 27.1562Z" stroke="white" stroke-width="4" stroke-miterlimit="10"/>
<path d="M74.9258 19.4589L92.387 6.17261L103.225 20.6951L85.7637 33.9813L74.9258 19.4589Z" fill="white"/>
<mask id="mask6_88_320" style="mask-type:luminance" maskUnits="userSpaceOnUse" x="74" y="6" width="30" height="28">
<path d="M74.9258 19.4591L92.387 6.17285L103.225 20.6953L85.7637 33.9816L74.9258 19.4591Z" fill="white"/>
</mask>
<g mask="url(#mask6_88_320)">
<path d="M94.44 27.1565C99.2655 23.4846 100.753 17.2602 97.764 13.2538C94.7739 9.24742 88.4379 8.97629 83.6124 12.6482C78.7869 16.3201 77.2988 22.5445 80.2888 26.5509C83.2788 30.5572 89.6146 30.8283 94.44 27.1565Z" fill="white" stroke="white" stroke-width="4" stroke-miterlimit="10"/>
</g>
<mask id="mask7_88_320" style="mask-type:luminance" maskUnits="userSpaceOnUse" x="77" y="6" width="24" height="28">
<path d="M77.416 28.2011L83.465 6.95898L100.754 11.9508L94.7043 33.1929L77.416 28.2011Z" fill="white"/>
</mask>
<g mask="url(#mask7_88_320)">
<path d="M74.9277 19.4779L92.4067 6.1731L103.227 20.6771L85.7477 33.9818L74.9277 19.4779Z" stroke="white" stroke-width="4" stroke-miterlimit="10"/>
</g>
<path d="M67.9824 17.915L92.9189 -1.05981L110.174 22.0611L85.2378 41.0358L67.9824 17.915Z" stroke="white" stroke-width="4" stroke-miterlimit="10"/>
</g>
<path d="M94.4404 27.1557C99.2658 23.4838 100.754 17.2594 97.7637 13.253C94.7736 9.24669 88.4383 8.97556 83.6124 12.6475C78.7869 16.3193 77.2988 22.5438 80.2888 26.5502C83.2788 30.5565 89.6143 30.8276 94.4404 27.1557Z" fill="#1E1F1F" stroke="white" stroke-width="4" stroke-miterlimit="10"/>
<path d="M84.1464 18.7494L85.883 17.522L88.019 20.5906C88.3839 21.0817 88.6613 21.6077 88.8703 22.1864C88.9917 22.6248 88.9571 23.0982 88.7835 23.5191C88.5576 24.0451 88.1926 24.4835 87.7063 24.7991C87.1331 25.2025 86.6467 25.4304 86.2303 25.5005C85.8309 25.5707 85.4141 25.5005 85.032 25.3252C84.6152 25.1148 84.2506 24.8167 83.9727 24.4309L85.4662 23.0281C85.5877 23.221 85.7441 23.3963 85.9177 23.5366C86.0393 23.6242 86.1782 23.6769 86.3345 23.6769C86.456 23.6769 86.5776 23.6242 86.6644 23.5541C86.838 23.4489 86.9595 23.2385 86.9425 23.0281C86.8903 22.73 86.7689 22.4319 86.5776 22.2039L84.1464 18.7494ZM89.3559 20.6959L90.9364 19.4333C91.11 19.6438 91.3359 19.8015 91.5788 19.8893C91.926 19.9945 92.291 19.9243 92.586 19.6964C92.795 19.5561 92.9686 19.3632 93.0378 19.1177C93.1423 18.8021 92.9686 18.4513 92.6559 18.3461C92.6037 18.3286 92.5515 18.3111 92.4992 18.3111C92.291 18.2936 91.926 18.3812 91.3882 18.6092C90.5023 18.9774 89.8077 19.1177 89.2867 19.0651C88.7835 19.0125 88.314 18.7494 88.0366 18.3111C87.8277 18.013 87.7239 17.6623 87.7063 17.3115C87.7063 16.9083 87.8108 16.5049 88.0366 16.1717C88.3663 15.6983 88.7658 15.295 89.2522 14.9794C89.9813 14.4708 90.6237 14.2253 91.1799 14.2253C91.7355 14.2253 92.2564 14.4884 92.7428 15.032L91.1799 16.277C90.8672 15.8737 90.2764 15.786 89.8769 16.1016L89.8253 16.1542C89.6517 16.2594 89.5296 16.4173 89.4604 16.6102C89.4082 16.7504 89.4427 16.9083 89.5296 17.031C89.5995 17.1187 89.7032 17.1888 89.8253 17.1888C89.9637 17.2064 90.2072 17.1362 90.5545 16.9784C91.4227 16.6102 92.0827 16.3997 92.5345 16.3296C92.9164 16.2594 93.3159 16.2945 93.6802 16.4523C94.0105 16.5926 94.2879 16.8381 94.4792 17.1362C94.722 17.4869 94.8611 17.9077 94.8787 18.3461C94.8957 18.8021 94.7743 19.2404 94.5315 19.6262C94.2187 20.0997 93.8192 20.503 93.3505 20.8186C92.3955 21.4849 91.614 21.7655 90.9886 21.6603C90.311 21.5551 89.7555 21.2044 89.3559 20.6959Z" fill="white"/>
</g>
</g>
</g>
</g>
</svg>
